<svg width="24" height="24" viewBox="0 0 24 24" fill="none" xmlns="http://www.w3.org/2000/svg">
<path d="M12 0C18.6274 0 24 5.37258 24 12C24 18.6274 18.6274 24 12 24H2.28571C1.02335 24 2.30095e-08 22.9767 0 21.7143V12C0 5.37258 5.37258 0 12 0Z" fill="#FF612A"/>
<path d="M12 0C14.7547 0 17.291 0.930457 19.3164 2.49121C19.594 6.90528 18.0659 11.8 14.7285 15.9346C10.9347 20.6347 5.68748 23.2569 0.769531 23.4209C0.298607 23.0022 1.2389e-08 22.3936 0 21.7139V12C2.89916e-07 5.37258 5.37258 2.89925e-07 12 0Z" fill="#F68616"/>
</svg>
